<svg xmlns="http://www.w3.org/2000/svg" width="19.156" height="18.66" viewBox="0 0 19.156 18.66">
  <path fill="#464646" d="M700.927,3316.8a1.886,1.886,0,1,0-1.943-1.87A1.9,1.9,0,0,0,700.927,3316.8Zm8.553-7.47H692.353a1,1,0,0,0-1.02.99v16.69a1.01,1.01,0,0,0,1.02.99H709.48a1.009,1.009,0,0,0,1.02-.99v-16.69A1,1,0,0,0,709.48,3309.33Zm-8.547,1.74a3.846,3.846,0,1,1-3.96,3.84A3.895,3.895,0,0,1,700.933,3311.07Zm4.419,9.2a4.725,4.725,0,0,1-1.708,1.07,8.375,8.375,0,0,1-1.94.43c0.1,0.1.147,0.15,0.209,0.21,0.9,0.88,1.8,1.76,2.695,2.64a0.849,0.849,0,0,1,.2,1.02,1.07,1.07,0,0,1-1,.61,0.971,0.971,0,0,1-.631-0.32c-0.678-.66-1.368-1.31-2.032-1.99-0.193-.2-0.286-0.16-0.457.01-0.681.69-1.373,1.36-2.07,2.03a0.888,0.888,0,0,1-1.049.18,1.022,1.022,0,0,1-.612-0.95,0.95,0.95,0,0,1,.329-0.64c0.888-.86,1.774-1.73,2.661-2.59,0.059-.06.113-0.12,0.2-0.21a6.066,6.066,0,0,1-3.232-1.13,2.885,2.885,0,0,1-.341-0.27,0.876,0.876,0,0,1-.127-1.27,0.947,0.947,0,0,1,1.223-.27,2.463,2.463,0,0,1,.268.16,5.432,5.432,0,0,0,5.874.05,1.69,1.69,0,0,1,.572-0.29,0.92,0.92,0,0,1,1.028.4A0.836,0.836,0,0,1,705.352,3320.27Z" transform="translate(-691.344 -3309.34)"/>
</svg>
