<svg xmlns="http://www.w3.org/2000/svg" width="22" height="20" viewBox="0 0 22 20">
  <path fill="#fff" fill-opacity="0.29" d="M170.937,892.031a1.46,1.46,0,0,0-1.595-1.112c-0.268,0-.535.022-0.8-0.006-0.513-.051-0.649.112-0.645,0.509,0.024,1.926.016,3.852,0.009,5.778a2.731,2.731,0,0,1-2.251,2.3c-3.806.809-7.608,1.626-11.416,2.426a6.184,6.184,0,0,1-1.315.133,0.742,0.742,0,0,1-.536-0.276,0.551,0.551,0,0,1,.246-0.422,2.168,2.168,0,0,1,.621-0.319c0.7-.238,1.408-0.459,2.114-0.685,2.827-.906,5.657-1.8,8.48-2.717a2.475,2.475,0,0,0,1.981-2.269c0.065-3.348.032-6.7,0.017-10.051a1.234,1.234,0,0,0-.94-1.2,2.656,2.656,0,0,0-2.071.248q-6,2.763-12,5.519a2.639,2.639,0,0,0-1.829,2.442c0.013,3.169,0,6.331.008,9.5a1.447,1.447,0,0,0,.068.47,2.765,2.765,0,0,0,2.829,1.693c2.815,0.008,5.638,0,8.455,0s5.605,0,8.411,0a2.534,2.534,0,0,0,1.628-.484,1.757,1.757,0,0,0,.562-1.625c0-3.088,0-6.169,0-9.26A3.072,3.072,0,0,0,170.937,892.031Zm-11.7-.989a2.091,2.091,0,0,1,1.846-1.271,1.089,1.089,0,0,1,1.258.839c0.135,0.838-.95,1.812-2.02,1.809A0.986,0.986,0,0,1,159.234,891.042Z" transform="translate(-149 -884)"/>
</svg>
