<svg xmlns="http://www.w3.org/2000/svg" width="21" height="21" viewBox="0 0 21 21">
  <path fill="#fff" fill-opacity="0.29" d="M244.87,887.193a4.937,4.937,0,0,1,.5,2.334,6.041,6.041,0,0,1-2.673,5.118q-2.673,1.946-7.47,1.944h-0.749a1.347,1.347,0,0,0-1.252.982l-0.9,3.832a1.344,1.344,0,0,1-1.251.985h-1.637l-0.147.626a0.772,0.772,0,0,0,.792.985h2.624a1.342,1.342,0,0,0,1.251-.984l0.9-3.833a1.347,1.347,0,0,1,1.252-.982h0.749q4.8,0,7.469-1.943A6.042,6.042,0,0,0,247,891.138a4.924,4.924,0,0,0-.5-2.333,3.951,3.951,0,0,0-1.441-1.519C244.994,887.247,244.939,887.232,244.87,887.193Zm-14.177,12.6,0.9-3.833a1.347,1.347,0,0,1,1.252-.982h0.748q4.8,0,7.47-1.944a6.039,6.039,0,0,0,2.673-5.118,4.924,4.924,0,0,0-.5-2.333,3.948,3.948,0,0,0-1.441-1.518,6.567,6.567,0,0,0-2.274-.826,17.494,17.494,0,0,0-3.084-.239h-5.465a1.346,1.346,0,0,0-1.254.982l-3.693,15.811a0.769,0.769,0,0,0,.791.983h2.624A1.343,1.343,0,0,0,230.693,899.792Zm2.142-9.174,0.789-3.356a1.348,1.348,0,0,1,1.251-.982h0.859a4.165,4.165,0,0,1,2.269.5,1.71,1.71,0,0,1,.764,1.538,2.817,2.817,0,0,1-1.185,2.428,5.558,5.558,0,0,1-3.3.855h-0.65A0.776,0.776,0,0,1,232.835,890.618Z" transform="translate(-226 -883)"/>
</svg>
