<svg xmlns="http://www.w3.org/2000/svg" width="41" height="13" viewBox="0 0 41 13">
  <path fill="#fff" fill-opacity="0.29" d="M81.3,891.241H78.726a1.653,1.653,0,0,0-1.746,1.045l-4.947,11.542h3.5s0.571-1.552.7-1.892l4.268,0c0.1,0.44.405,1.887,0.405,1.887H84Zm-4.109,8.117c0.275-.723,1.327-3.52,1.327-3.52-0.018.035,0.273-.728,0.444-1.2l0.225,1.086s0.638,3.007.772,3.636H77.191Zm-4.923.349c-0.025,2.615-2.3,4.3-5.8,4.3a10.311,10.311,0,0,1-3.713-.67l0.469-2.82,0.429,0.2a6.831,6.831,0,0,0,3.137.66c0.958,0,1.984-.386,1.993-1.23,0.006-.551-0.429-0.945-1.727-1.561-1.265-.6-2.94-1.614-2.919-3.422,0.018-2.449,2.338-4.156,5.633-4.156a8.378,8.378,0,0,1,2.984.528l-0.45,2.73-0.3-.146a6.006,6.006,0,0,0-2.494-.482c-1.3,0-1.91.56-1.91,1.083-0.007.59,0.706,0.978,1.872,1.562C71.393,897.184,72.282,898.275,72.269,899.707ZM43,891.371l0.043-.251h5.166a1.342,1.342,0,0,1,1.452,1.022l1.124,5.565C49.684,894.8,47.024,892.375,43,891.371Zm15.067-.133-5.248,12.571-3.526,0-2.984-10.5a13.362,13.362,0,0,1,4.616,5.219l0.348,1.3,3.264-8.588,3.53,0h0Zm1.347-.009h3.334l-2.085,12.593H57.335Z" transform="translate(-43 -891)"/>
</svg>
