<svg xmlns="http://www.w3.org/2000/svg" width="21" height="21" viewBox="0 0 21 21">
  <path fill="#fff" fill-opacity="0.29" d="M204.884,899.291l2.106,2.412a11.37,11.37,0,0,1-1.378.917,10.372,10.372,0,0,1-5.157,1.37,10.492,10.492,0,0,1,0-20.983,10.371,10.371,0,0,1,4.584,1.064c0.218,0.1.436,0.219,0.651,0.343l-0.963.864-1.446-1.5-2.442,2.185-1.447-1.588-4.554,4.111,2.917,3.225-1.146,1.01,2.873,3.228-1.14,1.009,4.107,4.583Zm4.994-6.508L211,894.03l-1.245,1.123-1.12-1.248Zm-1.721,4.393,1.68,1.872-1.865,1.684-1.682-1.872Zm-4.957-11.5,1.681,1.871-1.867,1.686-1.68-1.872Zm-3.945.647,2.24,2.494-2.489,2.247-2.24-2.5ZM204.734,893l-1.68-1.869,1.866-1.686,1.681,1.87Zm2.309-2.8,1.243-1.124,1.119,1.249-1.242,1.122Zm-0.712,6.753-1.682-1.87,1.867-1.685,1.682,1.869Zm-0.878-10.461,1.245-1.122,1.12,1.247-1.245,1.123Zm-4.664,8.838-2.24-2.5,2.489-2.248,2.24,2.5Zm1.771,4.311-2.241-2.5,2.489-2.247,2.238,2.5Z" transform="translate(-190 -883)"/>
</svg>
