<svg xmlns="http://www.w3.org/2000/svg" width="27" height="20" viewBox="0 0 27 20">
  <path fill="#fff" fill-opacity="0.29" d="M119.568,890.52a3.458,3.458,0,0,0-2.25.83,4.7,4.7,0,0,1,0,5.3A3.477,3.477,0,1,0,119.568,890.52Zm9.2-6.521H104.227A1.227,1.227,0,0,0,103,885.227v17.544A1.227,1.227,0,0,0,104.227,904h24.546A1.227,1.227,0,0,0,130,902.771V885.227A1.228,1.228,0,0,0,128.773,884Zm-9.2,14.708a4.682,4.682,0,0,1-3.068-1.143,4.708,4.708,0,1,1,0-7.129A4.7,4.7,0,1,1,119.568,898.707Z" transform="translate(-103 -884)"/>
</svg>
