<svg xmlns="http://www.w3.org/2000/svg" width="15" height="15" viewBox="0 0 15 15">
  <path fill="#ffd200" d="M12.5,20A1.5,1.5,0,1,0,14,21.5,1.5,1.5,0,0,0,12.5,20ZM8,8V9.5H9.5l2.7,5.7L11.15,17a2.665,2.665,0,0,0-.15.75,1.5,1.5,0,0,0,1.5,1.5h9v-1.5H12.8a0.161,0.161,0,0,1-.15-0.15V17.525l0.675-1.275h5.55a1.368,1.368,0,0,0,1.275-.75l2.7-4.875A0.413,0.413,0,0,0,23,10.25a0.709,0.709,0,0,0-.75-0.75H11.15L10.475,8H8ZM20,20a1.5,1.5,0,1,0,1.5,1.5A1.5,1.5,0,0,0,20,20Z" transform="translate(-8 -8)"/>
</svg>
