<svg id="icon-paperplane-white.svg" xmlns="http://www.w3.org/2000/svg" width="28" height="25" viewBox="0 0 28 25">
  <defs>
    <style>
      .cls-1 {
        fill: #fff;
        fill-rule: evenodd;
      }
    </style>
  </defs>
  <path id="Forma_1" data-name="Forma 1" class="cls-1" d="M1511.32,3569.54a0.463,0.463,0,0,0,.24.41,0.425,0.425,0,0,0,.46-0.03l3.12-2.17-3.82-1.85v3.64h0Zm18.53-24.42a0.423,0.423,0,0,0-.3-0.12,0.351,0.351,0,0,0-.2.05l-26.9,13.42a0.825,0.825,0,0,0-.45.74,0.808,0.808,0,0,0,.46.73l7.09,3.44,14.17-11.86-12.42,12.71,8.83,4.28a0.853,0.853,0,0,0,.35.08,0.717,0.717,0,0,0,.29-0.06,0.8,0.8,0,0,0,.45-0.45l8.75-22.45A0.464,0.464,0,0,0,1529.85,3545.12Z" transform="translate(-1502 -3545)"/>
</svg>