<svg xmlns="http://www.w3.org/2000/svg" width="18" height="18" viewBox="0 0 18 18">
  <path fill="#006fbc" d="M1252.97,696.1a5.057,5.057,0,1,0-4.82-5.059A4.946,4.946,0,0,0,1252.97,696.1Zm0-8.783a3.728,3.728,0,1,1-3.55,3.724A3.653,3.653,0,0,1,1252.97,687.319ZM1244.64,704h16.72a0.647,0.647,0,0,0,.64-0.667,6.2,6.2,0,0,0-6.04-6.347h-5.92a6.208,6.208,0,0,0-6.04,6.347A0.647,0.647,0,0,0,1244.64,704Zm5.4-5.679h5.92a4.849,4.849,0,0,1,4.72,4.345h-15.36A4.862,4.862,0,0,1,1250.04,698.321Z" transform="translate(-1244 -686)"/>
</svg>
