<svg xmlns="http://www.w3.org/2000/svg" width="19.156" height="18.66" viewBox="0 0 19.156 18.66">
  <path fill="#464646" d="M726.294,3309.33H740.54a2.438,2.438,0,0,1,2.46,2.4v13.87a2.438,2.438,0,0,1-2.46,2.4H726.294a2.439,2.439,0,0,1-2.461-2.4v-13.87A2.439,2.439,0,0,1,726.294,3309.33Zm11.5,2.07a0.855,0.855,0,0,0-.863.84v2.02a0.855,0.855,0,0,0,.863.84h2.166a0.856,0.856,0,0,0,.863-0.84v-2.02a0.856,0.856,0,0,0-.863-0.84H737.8Zm3.037,5.82h-1.686a5.366,5.366,0,0,1,.246,1.61,5.968,5.968,0,0,1-11.916,0,5.4,5.4,0,0,1,.246-1.61h-1.759v7.89a0.751,0.751,0,0,0,.761.74h13.347a0.751,0.751,0,0,0,.761-0.74v-7.89Zm-7.4-2.23a3.641,3.641,0,1,0,3.849,3.63A3.748,3.748,0,0,0,733.435,3314.99Z" transform="translate(-723.844 -3309.34)"/>
</svg>
