<svg xmlns="http://www.w3.org/2000/svg" width="12" height="10" viewBox="0 0 12 10">
  <path fill="#006fbc" d="M427.152,586.081q0.227,0.171,1.372,1.013t1.755,1.3c0.044,0.033.139,0.105,0.284,0.217s0.266,0.2.362,0.27,0.212,0.145.348,0.23a1.968,1.968,0,0,0,.385.192,1,1,0,0,0,.335.064h0.014a1,1,0,0,0,.334-0.064,1.941,1.941,0,0,0,.385-0.192c0.137-.085.253-0.162,0.349-0.23s0.216-.159.361-0.27,0.24-.184.285-0.217q0.616-.454,3.134-2.309a3.3,3.3,0,0,0,.817-0.873,1.964,1.964,0,0,0,.328-1.073,1.123,1.123,0,0,0-.318-0.8,1.007,1.007,0,0,0-.754-0.334h-9.857a0.932,0.932,0,0,0-.793.369,1.492,1.492,0,0,0-.278.924,1.72,1.72,0,0,0,.368.97A3.416,3.416,0,0,0,427.152,586.081Zm10.178,0.761q-2.2,1.577-3.335,2.45c-0.254.2-.461,0.354-0.619,0.465a3.7,3.7,0,0,1-.633.341,1.821,1.821,0,0,1-.736.175h-0.014a1.818,1.818,0,0,1-.736-0.175,3.659,3.659,0,0,1-.633-0.341c-0.159-.111-0.365-0.266-0.62-0.465q-0.9-.7-3.328-2.45a3.627,3.627,0,0,1-.676-0.619v5.641a1.131,1.131,0,0,0,.315.8,1,1,0,0,0,.756.334h9.857a1.006,1.006,0,0,0,.757-0.334,1.131,1.131,0,0,0,.315-0.8v-5.641A3.744,3.744,0,0,1,437.33,586.842Z" transform="translate(-426 -583)"/>
</svg>
