<svg xmlns="http://www.w3.org/2000/svg" width="17" height="18" viewBox="0 0 17 18">
  <path fill="#006fbc" d="M1010.99,698.325a0.814,0.814,0,0,0-.2-0.4,0.694,0.694,0,0,0-.84-0.152,6.179,6.179,0,0,1-5.79-.258,6.405,6.405,0,0,1-2.29-2.322,6.544,6.544,0,0,1-.32-5.764,6.4,6.4,0,0,1,1.52-2.128,0.686,0.686,0,0,0,.18-0.844,0.673,0.673,0,0,0-.71-0.457,8.7,8.7,0,0,0-3.349.8,8.819,8.819,0,0,0-2.723,1.929,8.928,8.928,0,0,0-1.8,2.832,9.022,9.022,0,0,0-.665,3.429,8.873,8.873,0,0,0,.705,3.5,9.089,9.089,0,0,0,1.9,2.873,8.961,8.961,0,0,0,2.832,1.923,8.7,8.7,0,0,0,8.227-.71,8.859,8.859,0,0,0,3.28-3.805A0.837,0.837,0,0,0,1010.99,698.325Zm-4.95,3.453a7.19,7.19,0,0,1-3.16.721,7.082,7.082,0,0,1-2.87-.6,7.428,7.428,0,0,1-2.363-1.6,7.584,7.584,0,0,1-1.578-2.392,7.572,7.572,0,0,1,.885-7.417,7.24,7.24,0,0,1,3.8-2.685,7.916,7.916,0,0,0,2.67,11.011,7.556,7.556,0,0,0,3.9,1.055,7.682,7.682,0,0,0,1.27-.105A7.361,7.361,0,0,1,1006.04,701.778Z" transform="translate(-994 -686)"/>
</svg>
