<svg xmlns="http://www.w3.org/2000/svg" width="17.969" height="12" viewBox="0 0 17.969 12">
  <path fill="#ffffff" d="M15.47,16.472a5.123,5.123,0,0,0-1.931-1.106l-0.558-.208V12.545a8.027,8.027,0,0,1,2.291.531l0.536-1.314a8.251,8.251,0,0,0-2.827-.589V9.989H12V11.2a3.964,3.964,0,0,0-2.14.775,2.006,2.006,0,0,0-.789,1.63,2.264,2.264,0,0,0,.554,1.554,4.354,4.354,0,0,0,1.759,1.08L12,16.458v2.685a6.8,6.8,0,0,1-1.513-.212,7.567,7.567,0,0,1-1.476-.506v1.515A7.733,7.733,0,0,0,12,20.485V22h0.977V20.442a4.016,4.016,0,0,0,2.247-.833,2.171,2.171,0,0,0,.778-1.716A2.021,2.021,0,0,0,15.47,16.472Zm-2.489,2.613V16.8a3.084,3.084,0,0,1,1,.52,0.884,0.884,0,0,1,.3.686q0,0.89-1.292,1.084h0Zm-1.872-6.16a1.738,1.738,0,0,1,.9-0.352v2.233a2.69,2.69,0,0,1-.944-0.538,0.948,0.948,0,0,1-.261-0.682A0.837,0.837,0,0,1,11.109,12.926ZM18,11h9v2H18V11Zm0,4h9v2H18V15Zm0,4h5v2H18V19Z" transform="translate(-9.031 -10)"/>
</svg>
