<svg xmlns="http://www.w3.org/2000/svg" width="16" height="17.969" viewBox="0 0 16 17.969">
  <path fill="#ffffff" d="M9.294,15.783c0.339-.377,3.137-4.574,3.271-4.948a23.1,23.1,0,0,0-.066-2.94c0.006-.593,1.987-1.462,2.517-0.368,0.315,0.65,1.351,2.925,1.248,3.573s-0.347,2.242-.6,3.436h5.846A1.361,1.361,0,0,1,23,15.781a1.846,1.846,0,0,1-.906,1.678,1.221,1.221,0,0,1,.463,1.1,1.834,1.834,0,0,1-.9,1.354,1.235,1.235,0,0,1,.444,1.072,1.825,1.825,0,0,1-.905,1.384,1.253,1.253,0,0,1,.349,1.01,1.937,1.937,0,0,1-2.1,1.616l-9.231,0a2.423,2.423,0,0,1-1.234-.457A1.717,1.717,0,0,0,8.481,24.3H7V16.857A10.623,10.623,0,0,0,9.294,15.783Z" transform="translate(-7 -7.031)"/>
</svg>
