<svg xmlns="http://www.w3.org/2000/svg" width="19.188" height="18.66" viewBox="0 0 19.188 18.66">
  <path fill="#464646" d="M670.277,3319.62a2.211,2.211,0,0,0-1.082-.18h-1.14v2.29H669.1a2.19,2.19,0,0,0,1.215-.2,1.179,1.179,0,0,0,.48-0.97A1.148,1.148,0,0,0,670.277,3319.62Zm-0.43-1.96a1.034,1.034,0,0,0,.387-0.83,0.955,0.955,0,0,0-.453-0.83,2.947,2.947,0,0,0-1.229-.13h-0.5v2.01h0.657A1.79,1.79,0,0,0,669.847,3317.66Zm5.615-8.33H663.025a3.327,3.327,0,0,0-3.37,3.28v12.11a3.327,3.327,0,0,0,3.37,3.28h12.437a3.328,3.328,0,0,0,3.371-3.28v-12.11A3.328,3.328,0,0,0,675.462,3309.33Zm-5.7,14.1h-3.918v-9.2h4.281a2.195,2.195,0,0,1,2.384,2.12,1.961,1.961,0,0,1-1.366,1.99v0.03a2.1,2.1,0,0,1,1.946,2.27C673.091,3321.98,672.154,3323.43,669.764,3323.43Z" transform="translate(-659.656 -3309.34)"/>
</svg>
