<svg xmlns="http://www.w3.org/2000/svg" width="17" height="17" viewBox="0 0 17 17">
  <path fill="#ffffff" d="M23.78,15.037L21.7,13.39l0.759-2.615a0.6,0.6,0,0,0-.082-0.51,0.547,0.547,0,0,0-.438-0.239l-2.609-.05L18.48,7.391a0.567,0.567,0,0,0-.353-0.363,0.533,0.533,0,0,0-.489.076L15.5,8.672,13.361,7.1a0.533,0.533,0,0,0-.489-0.076,0.567,0.567,0,0,0-.352.363L11.67,9.976l-2.609.05a0.547,0.547,0,0,0-.438.239,0.6,0.6,0,0,0-.082.51L9.3,13.39,7.22,15.037a0.6,0.6,0,0,0,0,.926L9.3,17.61,8.542,20.226a0.6,0.6,0,0,0,.082.51,0.547,0.547,0,0,0,.438.239l2.609,0.05,0.851,2.585a0.567,0.567,0,0,0,.352.363,0.533,0.533,0,0,0,.489-0.076L15.5,22.328,17.639,23.9a0.532,0.532,0,0,0,.488.076,0.567,0.567,0,0,0,.352-0.363l0.851-2.585,2.609-.05a0.547,0.547,0,0,0,.438-0.239,0.6,0.6,0,0,0,.082-0.51L21.7,17.61l2.081-1.647A0.6,0.6,0,0,0,23.78,15.037ZM12.439,13.262a0.4,0.4,0,0,1,.38-0.286q0.5,0,.5,1.163t-0.5,1.173a0.4,0.4,0,0,1-.38-0.291,2.484,2.484,0,0,1-.118-0.882A2.444,2.444,0,0,1,12.439,13.262Zm1.729-.707A1.7,1.7,0,0,0,12.808,12Q11,12,11,14.13a2.387,2.387,0,0,0,.472,1.594,1.662,1.662,0,0,0,1.336.551,1.713,1.713,0,0,0,1.368-.537,2.4,2.4,0,0,0,.466-1.608A2.347,2.347,0,0,0,14.168,12.555ZM16.99,12.1l-4.25,6.8H14l4.25-6.8H16.99Zm0.815,3.879a0.4,0.4,0,0,1,.38-0.286q0.5,0,.5,1.164t-0.5,1.173a0.4,0.4,0,0,1-.38-0.291,2.484,2.484,0,0,1-.118-0.882A2.444,2.444,0,0,1,17.805,15.981Zm1.729-.707a1.7,1.7,0,0,0-1.36-.551q-1.808,0-1.808,2.127a2.379,2.379,0,0,0,.472,1.589,1.662,1.662,0,0,0,1.336.552,1.713,1.713,0,0,0,1.368-.538,2.388,2.388,0,0,0,.466-1.6A2.347,2.347,0,0,0,19.535,15.273Z" transform="translate(-7 -7)"/>
</svg>
