<svg xmlns="http://www.w3.org/2000/svg" width="16" height="18" viewBox="0 0 16 18">
  <path fill="#ffffff" d="M12.312,9.6a1.807,1.807,0,0,0-1.167-.424,1.767,1.767,0,0,0-1.789,1.744,1.7,1.7,0,0,0,.166.73A8.668,8.668,0,0,1,12.312,9.6ZM16,25a7.9,7.9,0,0,0,8-7.794,7.855,7.855,0,0,0-6.643-7.681V8.066h0.693a0.486,0.486,0,0,0,.416-0.534A0.486,0.486,0,0,0,18.047,7H13.954a0.486,0.486,0,0,0-.416.534,0.486,0.486,0,0,0,.416.534h0.693V9.527a8.085,8.085,0,0,0-1.922.571A8,8,0,0,0,9.9,12.168,7.647,7.647,0,0,0,8,17.208,7.9,7.9,0,0,0,16,25Zm-4.711-12.35a6.662,6.662,0,0,1,1.529-1.123A6.732,6.732,0,0,1,16,10.736a6.565,6.565,0,0,1,6.64,6.472,6.642,6.642,0,0,1-13.28,0A6.368,6.368,0,0,1,11.289,12.653Zm0.7,8.469a5.664,5.664,0,0,0,.84.676q0.226,0.149.468,0.277A5.769,5.769,0,0,0,16,22.742q0.184,0,.365-0.011a5.762,5.762,0,0,0,1.717-.373,5.628,5.628,0,0,0,.625-0.284c0.161-.085.317-0.178,0.468-0.277a5.62,5.62,0,0,0,.84-0.676,5.436,5.436,0,0,0,0-7.827,5.675,5.675,0,0,0-.84-0.676q-0.227-.149-0.468-0.277a5.75,5.75,0,0,0-2.342-.657Q16.183,11.673,16,11.673a5.769,5.769,0,0,0-2.706.668q-0.242.128-.468,0.277a5.646,5.646,0,0,0-.84.676A5.437,5.437,0,0,0,11.985,21.122ZM16,12.8v4.146l-4.276,1.6A4.521,4.521,0,0,1,16,12.8Z" transform="translate(-8 -7)"/>
</svg>
