<svg xmlns="http://www.w3.org/2000/svg" width="23" height="23" viewBox="0 0 23 23">
  <path fill="#006fbc" d="M782.083,686.155h-3.115v-1.438a0.719,0.719,0,1,0-1.437,0v1.438h-4.313v-1.438a0.719,0.719,0,1,0-1.437,0v1.438h-4.313v-1.438a0.719,0.719,0,1,0-1.437,0v1.438h-3.114A1.916,1.916,0,0,0,761,688.071v17.01A1.917,1.917,0,0,0,762.917,707h19.166A1.917,1.917,0,0,0,784,705.081v-17.01A1.916,1.916,0,0,0,782.083,686.155Zm0.479,18.926a0.479,0.479,0,0,1-.479.479H762.917a0.479,0.479,0,0,1-.48-0.479v-17.01a0.48,0.48,0,0,1,.48-0.479h3.114v1.437a0.719,0.719,0,1,0,1.437,0v-1.437h4.313v1.437a0.719,0.719,0,1,0,1.437,0v-1.437h4.313v1.437a0.719,0.719,0,1,0,1.437,0v-1.437h3.115a0.48,0.48,0,0,1,.479.479v17.01Zm-16.531-12.458h2.875v2.157h-2.875v-2.157Zm0,3.594h2.875v2.157h-2.875v-2.157Zm0,3.594h2.875v2.156h-2.875v-2.156Zm5.031,0h2.875v2.156h-2.875v-2.156Zm0-3.594h2.875v2.157h-2.875v-2.157Zm0-3.594h2.875v2.157h-2.875v-2.157Zm5.031,7.188h2.875v2.156h-2.875v-2.156Zm0-3.594h2.875v2.157h-2.875v-2.157Zm0-3.594h2.875v2.157h-2.875v-2.157Z" transform="translate(-761 -684)"/>
</svg>
