<svg width="153px" height="38px" viewBox="0 0 153 38" version="1.1" xmlns="http://www.w3.org/2000/svg" xmlns:xlink="http://www.w3.org/1999/xlink">
    <title>Palladium</title>
    <g stroke="none" stroke-width="1" fill="none" fill-rule="evenodd">
        <path d="M50.167,7.508 L52.409,7.508 C53.052,7.508 53.595,7.522 54.039,7.551 C54.485,7.579 54.828,7.623 55.066,7.682 C55.409,7.767 55.723,7.898 56.005,8.073 C56.288,8.248 56.54,8.469 56.76,8.734 C56.983,9.003 57.151,9.306 57.262,9.641 C57.372,9.973 57.427,10.337 57.427,10.733 C57.427,11.13 57.373,11.495 57.266,11.827 C57.158,12.164 56.995,12.465 56.777,12.731 C56.563,12.993 56.307,13.214 56.009,13.391 C55.716,13.566 55.383,13.699 55.012,13.789 C54.743,13.854 54.363,13.902 53.875,13.933 C53.389,13.964 52.796,13.979 52.098,13.979 L51.524,13.979 L51.524,19.209 L49.938,19.209 L49.938,7.508 L50.167,7.508 L50.167,7.508 Z M48.685,23.261 L52.97,23.261 L52.97,24.718 L51.556,24.718 L51.556,31.012 L50.056,31.012 L50.056,24.718 L48.685,24.718 L48.685,23.261 L48.685,23.261 Z M55.262,23.261 L56.829,23.261 C57.685,23.261 58.297,23.336 58.66,23.489 C59.026,23.642 59.318,23.899 59.538,24.252 C59.759,24.606 59.871,25.026 59.871,25.512 C59.871,26.021 59.749,26.448 59.506,26.789 C59.262,27.133 58.895,27.392 58.403,27.566 L60.233,31.012 L58.621,31.012 L56.879,27.73 L56.73,27.73 L56.73,31.012 L55.262,31.012 L55.262,23.261 L55.262,23.261 Z M56.73,26.294 L57.198,26.294 C57.673,26.294 57.998,26.233 58.179,26.109 C58.357,25.985 58.446,25.78 58.446,25.492 C58.446,25.323 58.401,25.175 58.314,25.049 C58.225,24.924 58.106,24.833 57.957,24.779 C57.81,24.724 57.535,24.697 57.139,24.697 L56.73,24.697 L56.73,26.294 L56.73,26.294 Z M64.986,23.261 L66.472,23.261 L69.455,31.012 L67.92,31.012 L67.316,29.414 L64.138,29.414 L63.519,31.012 L61.985,31.012 L64.986,23.261 L64.986,23.261 Z M65.731,25.321 L64.68,27.989 L66.776,27.989 L65.731,25.321 L65.731,25.321 Z M70.046,23.261 L71.563,23.261 L73.511,28.767 L75.498,23.261 L77.009,23.261 L74.211,31.012 L72.788,31.012 L70.046,23.261 L70.046,23.261 Z M78.803,23.261 L83.035,23.261 L83.035,24.708 L80.271,24.708 L80.271,26.1 L83.035,26.1 L83.035,27.525 L80.271,27.525 L80.271,29.565 L83.035,29.565 L83.035,31.012 L78.803,31.012 L78.803,23.261 L78.803,23.261 Z M85.585,23.261 L87.053,23.261 L87.053,29.608 L89.223,29.608 L89.223,31.012 L85.585,31.012 L85.585,23.261 L85.585,23.261 Z M18.561,0.879 C23.686,0.879 28.326,2.956 31.685,6.315 C35.044,9.674 37.121,14.314 37.121,19.439 C37.121,24.565 35.044,29.205 31.685,32.564 C28.326,35.922 23.686,38 18.561,38 C13.435,38 8.795,35.922 5.436,32.564 C2.078,29.205 0,24.565 0,19.439 C0,14.314 2.078,9.674 5.436,6.315 C8.795,2.956 13.435,0.879 18.561,0.879 L18.561,0.879 Z M10.626,34.301 L10.626,18.03 C10.626,15.63 11.602,13.453 13.178,11.878 C14.754,10.302 16.931,9.325 19.331,9.325 C21.731,9.325 23.907,10.302 25.483,11.878 C27.059,13.453 28.036,15.63 28.036,18.03 C28.036,20.43 27.059,22.606 25.483,24.183 C23.907,25.759 21.731,26.735 19.331,26.735 C19.054,26.735 18.776,26.722 18.497,26.695 C18.248,26.671 18.002,26.637 17.76,26.593 L11.587,34.777 C13.712,35.744 16.073,36.284 18.561,36.284 C23.212,36.284 27.423,34.399 30.472,31.35 C33.52,28.302 35.405,24.091 35.405,19.439 C35.405,14.788 33.52,10.577 30.472,7.528 C27.423,4.48 23.212,2.595 18.561,2.595 C13.909,2.595 9.698,4.48 6.65,7.528 C3.601,10.577 1.716,14.788 1.716,19.439 C1.716,24.091 3.601,28.302 6.65,31.35 C7.818,32.518 9.157,33.515 10.626,34.301 L10.626,34.301 Z M19.331,11.27 C17.467,11.27 15.777,12.028 14.553,13.252 C13.329,14.476 12.571,16.166 12.571,18.03 L12.571,30.245 L15.787,25.982 C15.546,25.874 15.309,25.755 15.08,25.626 C14.8,25.469 14.526,25.294 14.259,25.103 L14.144,25.02 L15.277,23.44 L15.393,23.524 C15.97,23.938 16.599,24.255 17.262,24.468 C17.923,24.681 18.619,24.791 19.331,24.791 C21.194,24.791 22.884,24.033 24.108,22.808 C25.332,21.584 26.091,19.894 26.091,18.03 C26.091,16.166 25.332,14.476 24.108,13.252 C22.884,12.028 21.194,11.27 19.331,11.27 L19.331,11.27 Z M51.524,9.062 L51.524,12.428 L53.203,12.449 C53.564,12.454 53.881,12.437 54.153,12.403 C54.424,12.369 54.643,12.318 54.808,12.253 C54.965,12.191 55.105,12.111 55.227,12.013 C55.348,11.915 55.454,11.799 55.542,11.663 C55.632,11.525 55.699,11.379 55.744,11.226 C55.788,11.073 55.81,10.909 55.81,10.736 C55.81,10.568 55.788,10.408 55.744,10.258 C55.699,10.107 55.632,9.961 55.542,9.824 C55.454,9.688 55.351,9.571 55.235,9.475 C55.116,9.378 54.985,9.3 54.841,9.243 C54.694,9.185 54.493,9.14 54.238,9.11 C53.975,9.078 53.656,9.062 53.283,9.062 L51.524,9.062 L51.524,9.062 Z M64.898,7.64 L70.296,19.209 L68.585,19.209 L66.828,15.513 L62.244,15.513 L60.498,19.209 L58.74,19.209 C60.581,15.308 62.419,11.406 64.265,7.508 L64.836,7.508 L64.898,7.64 L64.898,7.64 Z M64.55,10.632 L62.977,13.959 L66.116,13.959 L64.55,10.632 L64.55,10.632 Z M74.155,7.508 L75.511,7.508 L75.511,17.655 L79.848,17.655 L79.848,19.209 L73.926,19.209 L73.926,7.508 L74.155,7.508 L74.155,7.508 Z M83.871,7.508 L85.228,7.508 L85.228,17.655 L89.565,17.655 L89.565,19.209 L83.642,19.209 L83.642,7.508 L83.871,7.508 L83.871,7.508 Z M98.398,7.64 L103.795,19.209 L102.084,19.209 L100.328,15.513 L95.744,15.513 L93.998,19.209 L92.24,19.209 L97.765,7.508 L98.336,7.508 L98.398,7.64 L98.398,7.64 Z M98.05,10.632 L96.477,13.959 L99.616,13.959 L98.05,10.632 L98.05,10.632 Z M106.896,18.98 L106.896,7.508 L109.458,7.508 C110.303,7.508 111.037,7.543 111.657,7.611 C112.286,7.68 112.799,7.786 113.196,7.926 C113.765,8.127 114.273,8.399 114.718,8.745 C115.163,9.091 115.548,9.511 115.868,10.006 C116.188,10.496 116.428,11.034 116.588,11.619 C116.747,12.202 116.827,12.829 116.827,13.499 C116.827,14.08 116.764,14.628 116.638,15.142 C116.511,15.657 116.321,16.138 116.066,16.585 C115.814,17.03 115.521,17.419 115.192,17.749 C114.859,18.083 114.487,18.357 114.079,18.572 C113.669,18.786 113.18,18.946 112.614,19.052 C112.052,19.156 111.416,19.209 110.703,19.209 L106.896,19.209 L106.896,18.98 L106.896,18.98 Z M108.434,17.686 L109.502,17.686 C111.029,17.686 112.079,17.593 112.655,17.408 C113.053,17.277 113.409,17.096 113.721,16.862 C114.032,16.631 114.301,16.347 114.527,16.013 C114.755,15.674 114.926,15.299 115.039,14.886 C115.154,14.471 115.211,14.013 115.211,13.515 C115.211,12.993 115.148,12.51 115.023,12.067 C114.899,11.628 114.713,11.227 114.465,10.865 C114.221,10.503 113.926,10.197 113.582,9.949 C113.238,9.699 112.843,9.507 112.401,9.372 C112.065,9.27 111.615,9.192 111.053,9.14 C110.488,9.088 109.803,9.062 108.999,9.062 L108.434,9.062 L108.434,17.686 L108.434,17.686 Z M121.341,7.508 L122.698,7.508 L122.698,19.209 L121.112,19.209 L121.112,7.508 L121.341,7.508 L121.341,7.508 Z M127.833,7.508 L129.19,7.508 L129.19,14.528 C129.19,14.944 129.194,15.269 129.201,15.501 C129.208,15.742 129.219,15.909 129.234,15.998 L129.235,16.006 C129.26,16.212 129.303,16.4 129.362,16.568 C129.42,16.734 129.495,16.884 129.586,17.017 C129.674,17.146 129.788,17.267 129.927,17.377 C130.07,17.491 130.24,17.595 130.434,17.688 C130.63,17.78 130.827,17.851 131.026,17.898 C131.221,17.944 131.418,17.968 131.615,17.968 C131.787,17.968 131.954,17.95 132.114,17.915 C132.273,17.879 132.431,17.825 132.589,17.752 C132.746,17.68 132.89,17.594 133.017,17.496 C133.145,17.397 133.262,17.284 133.364,17.158 C133.468,17.032 133.557,16.892 133.633,16.739 C133.711,16.583 133.774,16.412 133.824,16.228 C133.858,16.098 133.885,15.893 133.903,15.614 C133.921,15.331 133.931,14.969 133.931,14.528 L133.931,7.508 L135.516,7.508 L135.516,14.522 C135.516,15.031 135.491,15.494 135.441,15.909 C135.39,16.331 135.313,16.704 135.211,17.026 C135.106,17.357 134.947,17.669 134.735,17.959 C134.525,18.248 134.264,18.514 133.956,18.753 C133.639,18.999 133.29,19.184 132.908,19.307 C132.528,19.429 132.117,19.491 131.675,19.491 C131.202,19.491 130.76,19.433 130.35,19.319 C129.938,19.205 129.559,19.032 129.215,18.802 C128.871,18.573 128.582,18.304 128.348,17.996 C128.115,17.688 127.939,17.343 127.822,16.96 C127.748,16.724 127.692,16.401 127.657,15.991 C127.622,15.59 127.604,15.1 127.604,14.522 L127.604,7.508 L127.833,7.508 L127.833,7.508 Z M139.019,18.949 L140.604,7.508 L141.177,7.508 L145.61,16.445 L150.015,7.508 L150.524,7.508 L152.208,19.209 L150.657,19.209 L149.605,11.696 L145.888,19.209 L145.31,19.209 L141.557,11.64 L140.551,19.209 L138.983,19.209 L139.019,18.949 L139.019,18.949 Z" fill="#FFFFFF"/>
    </g>
</svg>